<svg width="41" height="32" viewBox="0 0 41 32" fill="none" xmlns="http://www.w3.org/2000/svg">
<path fill-rule="evenodd" clip-rule="evenodd" d="M14.0873 3.59807C15.2237 1.45845 17.4747 0 20.0664 0C22.658 0 24.9089 1.45845 26.0454 3.59807H14.0873ZM13.5933 25.9555C10.1487 25.9555 7.33978 23.1465 7.33978 19.702V10.6881C7.33978 7.24346 10.1488 4.43458 13.5933 4.43458H26.5389C29.9836 4.43458 32.7925 7.24359 32.7925 10.6881V19.702C32.7925 23.1467 29.9835 25.9555 26.5389 25.9555H18.7747L14.6505 31.7541C14.5005 31.9649 14.2442 32.0492 13.998 31.9716C13.7519 31.8941 13.5934 31.6749 13.5934 31.4169L13.5933 25.9555ZM17.4747 22.2141H22.656C22.9798 22.2141 23.2411 21.9528 23.2411 21.629C23.2411 21.3053 22.9798 21.0439 22.656 21.0439L17.4747 21.0423C17.151 21.0423 16.8896 21.3036 16.8896 21.6273C16.8896 21.9511 17.1526 22.2141 17.4747 22.2141ZM15.2743 10.8431C14.6674 10.8431 14.1177 11.0893 13.7197 11.4872C13.3218 11.8851 13.0757 12.4347 13.0757 13.0417C13.0757 13.6488 13.3218 14.1984 13.7197 14.5963C14.1177 14.9943 14.6673 15.2404 15.2743 15.2404C15.8813 15.2404 16.431 14.9943 16.8289 14.5963C17.2268 14.1984 17.473 13.6488 17.473 13.0417C17.473 12.4347 17.2268 11.8851 16.8289 11.4872C16.4293 11.0893 15.8797 10.8431 15.2743 10.8431ZM13.101 8.76079C12.1534 8.76079 11.2918 9.1469 10.6696 9.77073C10.0458 10.3946 9.6597 11.2545 9.6597 12.202V13.8831C9.6597 14.8306 10.0458 15.6922 10.6696 16.3144C11.2935 16.9382 12.1534 17.3243 13.101 17.3243H27.0298C27.9774 17.3243 28.839 16.9382 29.4612 16.3144C30.085 15.6905 30.4711 14.8306 30.4711 13.8831V12.202C30.4711 11.2545 30.085 10.3929 29.4612 9.77073C28.8373 9.14688 27.9774 8.76079 27.0298 8.76079H13.101ZM27.0311 9.93091H13.101C12.4754 9.93091 11.9089 10.1855 11.4975 10.5969C11.0861 11.0083 10.8315 11.5765 10.8315 12.2004V13.8814C10.8315 14.5069 11.0861 15.0734 11.4975 15.4848C11.9089 15.8962 12.4771 16.1508 13.101 16.1508H27.0298C27.6554 16.1508 28.2219 15.8962 28.6333 15.4848C29.0447 15.0734 29.2993 14.5052 29.2993 13.8814V12.2004C29.2993 11.5748 29.0447 11.0083 28.6333 10.5969C28.2236 10.1855 27.655 9.93091 27.0311 9.93091ZM24.8595 10.8431C24.2525 10.8431 23.7028 11.0893 23.3049 11.4872C22.907 11.8851 22.6608 12.4347 22.6608 13.0417C22.6608 13.6488 22.907 14.1984 23.3049 14.5963C23.7028 14.9943 24.2525 15.2404 24.8595 15.2404C25.4665 15.2404 26.0161 14.9943 26.4141 14.5963C26.812 14.1984 27.0582 13.6488 27.0582 13.0417C27.0582 12.4347 26.812 11.8851 26.4141 11.4872C26.0162 11.0892 25.4648 10.8431 24.8595 10.8431ZM25.5862 12.315C25.4007 12.1296 25.1428 12.0149 24.8595 12.0149C24.5762 12.0149 24.3183 12.1296 24.1328 12.315C23.9473 12.5005 23.8327 12.7585 23.8327 13.0417C23.8327 13.325 23.9473 13.583 24.1328 13.7685C24.3183 13.9539 24.5762 14.0686 24.8595 14.0686C25.1428 14.0686 25.4007 13.9539 25.5862 13.7685C25.7717 13.583 25.8863 13.325 25.8863 13.0417C25.8863 12.7568 25.7717 12.5005 25.5862 12.315ZM16.0009 12.315C15.8154 12.1296 15.5574 12.0149 15.2742 12.0149C14.9909 12.0149 14.7329 12.1296 14.5475 12.315C14.362 12.5005 14.2473 12.7585 14.2473 13.0417C14.2473 13.325 14.362 13.583 14.5475 13.7685C14.7329 13.9539 14.9909 14.0686 15.2742 14.0686C15.5574 14.0686 15.8154 13.9539 16.0009 13.7685C16.1863 13.583 16.301 13.325 16.301 13.0417C16.301 12.7568 16.1863 12.5005 16.0009 12.315ZM33.3777 21.5698C33.1382 22.4414 32.7369 23.2474 32.2075 23.9522V24.0685H32.2092V24.1039C32.2008 25.3634 31.6815 26.5116 30.8486 27.3462C30.019 28.1775 28.8776 28.6934 27.618 28.6934V28.6951L25.4514 28.6799C25.239 28.25 24.7956 27.9532 24.2847 27.9532H21.9933C21.2767 27.9532 20.6933 28.5366 20.6933 29.2532V29.437C20.6933 30.1536 21.2767 30.7369 21.9933 30.7369H24.2847C24.8579 30.7369 25.3452 30.3626 25.5172 29.8484C26.2169 29.8534 26.9167 29.8602 27.6164 29.8635V29.8652C29.198 29.8652 30.6311 29.2161 31.6748 28.1707C32.7151 27.1287 33.3626 25.6905 33.3727 24.1089V24.0685H33.3743L33.3777 21.5698ZM6.50487 10.5514H6.17102C4.7834 10.5514 3.65036 11.8783 3.65036 13.5054V15.7428C3.65036 17.3699 4.7834 18.6969 6.17102 18.6969H6.50318V10.6879C6.50318 10.6423 6.50487 10.5969 6.50487 10.5514ZM33.6271 10.5514H33.961C35.3486 10.5514 36.4817 11.8783 36.4817 13.5054V15.7428C36.4817 17.3699 35.3486 18.6969 33.961 18.6969H33.6288V10.6879C33.6288 10.6423 33.6271 10.5969 33.6271 10.5514ZM35.5139 10.1383C35.8915 10.3625 36.2203 10.6626 36.4884 11.0168L38.0953 5.02263C38.102 4.99566 38.1071 4.96868 38.1104 4.9417C39.0057 4.92315 39.8184 4.31786 40.0612 3.40905C40.3563 2.30635 39.7021 1.1733 38.5994 0.876553C37.4967 0.581491 36.3637 1.23569 36.0669 2.33837C35.8241 3.24718 36.2254 4.17619 36.9909 4.64154C36.9807 4.66683 36.9706 4.69212 36.9639 4.7191L35.5139 10.1383ZM3.6436 11.0184L2.03675 5.02432C2.03 4.99734 2.02494 4.97036 2.02157 4.94338C1.12627 4.92484 0.313588 4.31954 0.0707925 3.41073C-0.224269 2.30803 0.429927 1.17499 1.53261 0.878237C2.63531 0.583175 3.76836 1.23737 4.06511 2.34006C4.30959 3.24887 3.90662 4.17788 3.14115 4.64322C3.15127 4.66852 3.16138 4.69381 3.16813 4.72078L4.61985 10.1382C4.24048 10.3625 3.91169 10.6644 3.6436 11.0184Z" fill="white"/>
</svg>
